# xmcd
#
# Track frame offsets:
#	150
#	19669
#	39013
#	75240
#	91050
#	111546
#	133935
#	145256
#	156873
#	188528
#	218022
#	239881
#	266430
#	286839
#	322719
#
# Disc length: 4545 seconds
#
# Revision: 0
# Processed by: cddbd v1.5.2PL0 Copyright (c) Steve Scherf et al.
# Submitted via: audiograbber 1.83.01
#
DISCID=c111bf0f
DTITLE=Various Artist - Simply The Best Comedy Collection - USA
DYEAR=2006
DGENRE=Comedy
TTITLE0=Abbott And Costello - Who's On First? (Short Version)
TTITLE1=Carl Reiner and Mel Brooks - Slow Growth - Natural Foods
TTITLE2=Bob Newhart - Driving Instructor
TTITLE3=Bill Cosby - My Brother, Russell
TTITLE4=Ray Romano - The Bed
TTITLE5=Billy Crystal - Now!
TTITLE6=Steven Wright - Hitchhiking
TTITLE7=Chris Rock - Blacks Aren't Crazy
TTITLE8=Robin Williams - Alcohol
TTITLE9=Rodney Dangerfield - No Respect (Excerpt)
TTITLE10=Dennis Miller - Sex (Remastered Album Version)
TTITLE11=Eddie Murphy - Cumin' Hard
TTITLE12=Robert Schimmel - The Gym
TTITLE13=Richard Pryor - Discipline (Remastered Explicit Version)
TTITLE14=Adam Sandler - Gay Robot
EXTD=
EXTT0=
EXTT1=
EXTT2=
EXTT3=
EXTT4=
EXTT5=
EXTT6=
EXTT7=
EXTT8=
EXTT9=
EXTT10=
EXTT11=
EXTT12=
EXTT13=
EXTT14=
PLAYORDER=
